<svg width="40" height="40" viewBox="0 0 40 40" fill="none" xmlns="http://www.w3.org/2000/svg">
<path fill-rule="evenodd" clip-rule="evenodd" d="M32 30H8C6.89543 30 6 29.1046 6 28V12C6 10.8954 6.89543 10 8 10H32C33.1046 10 34 10.8954 34 12V28C34 29.1046 33.1046 30 32 30ZM22.75 20.433C23.0833 20.2406 23.0833 19.7594 22.75 19.567L18.25 16.9689C17.9167 16.7765 17.5 17.017 17.5 17.4019V22.5981C17.5 22.983 17.9167 23.2235 18.25 23.0311L22.75 20.433Z" fill="url(#paint0_linear_407_7957)" fill-opacity="0.24"/>
<path d="M9 10V10C9 8.89543 9.89543 8 11 8H29C30.1046 8 31 8.89543 31 10V10" stroke="#CCD7F6" stroke-opacity="0.12" stroke-linecap="round" stroke-linejoin="round"/>
<path d="M31 30V30C31 31.1046 30.1046 32 29 32L11 32C9.89543 32 9 31.1046 9 30V30" stroke="#CCD7F6" stroke-opacity="0.12" stroke-linecap="round" stroke-linejoin="round"/>
<path d="M34 15V12C34 10.8954 33.1046 10 32 10H8C6.89543 10 6 10.8954 6 12V15M34 24V28C34 29.1046 33.1046 30 32 30H20H8C6.89543 30 6 29.1046 6 28V24" stroke="#C0C7D8" stroke-linecap="round" stroke-linejoin="round"/>
<path d="M25.5 14L26 14C27.1046 14 28 14.8954 28 16V17.1459C28 18.2822 28.642 19.321 29.6584 19.8292L30 20L29.6584 20.1708C28.642 20.679 28 21.7178 28 22.8541V24C28 25.1046 27.1046 26 26 26H25.5" stroke="#C0C7D8" stroke-linecap="round" stroke-linejoin="round"/>
<path d="M14.5 14L14 14C12.8954 14 12 14.8954 12 16V17.1459C12 18.2822 11.358 19.321 10.3416 19.8292L10 20L10.3416 20.1708C11.358 20.679 12 21.7178 12 22.8541V24C12 25.1046 12.8954 26 14 26H14.5" stroke="#C0C7D8" stroke-linecap="round" stroke-linejoin="round"/>
<path d="M6 18L6 21" stroke="#C0C7D8" stroke-linecap="round" stroke-linejoin="round"/>
<path d="M34 18L34 21" stroke="#C0C7D8" stroke-linecap="round" stroke-linejoin="round"/>
<path d="M22.75 19.567C23.0833 19.7594 23.0833 20.2406 22.75 20.433L18.25 23.0311C17.9167 23.2235 17.5 22.983 17.5 22.5981L17.5 17.4019C17.5 17.017 17.9167 16.7765 18.25 16.9689L22.75 19.567Z" stroke="#C0C7D8" stroke-linecap="round" stroke-linejoin="round"/>
<path d="M18 14H22" stroke="#CCD7F6" stroke-opacity="0.12" stroke-linecap="round" stroke-linejoin="round"/>
<path d="M18 26H22" stroke="#CCD7F6" stroke-opacity="0.12" stroke-linecap="round" stroke-linejoin="round"/>
<defs>
<linearGradient id="paint0_linear_407_7957" x1="20" y1="10" x2="20" y2="30" gradientUnits="userSpaceOnUse">
<stop stop-color="#CCD7F6" stop-opacity="0"/>
<stop offset="1" stop-color="#CCD7F6"/>
</linearGradient>
</defs>
</svg>
