<svg width="40" height="40" viewBox="0 0 40 40" fill="none" xmlns="http://www.w3.org/2000/svg">
<path d="M20 10H32C33.1046 10 34 10.8954 34 12V28C34 29.1046 33.1046 30 32 30H20V10Z" fill="url(#paint0_linear_407_7973)" fill-opacity="0.24"/>
<rect x="23.5" y="14" width="5" height="1" rx="0.5" fill="#CCD7F6" fill-opacity="0.12"/>
<rect x="23.5" y="25" width="5" height="1" rx="0.5" fill="#CCD7F6" fill-opacity="0.12"/>
<rect x="23.5" y="17" width="7" height="1" rx="0.5" fill="#CCD7F6" fill-opacity="0.12"/>
<rect x="23.5" y="20" width="6" height="3" rx="0.5" fill="#CCD7F6" fill-opacity="0.12"/>
<path d="M9 10V10C9 8.89543 9.89543 8 11 8H17M31 10V10C31 8.89543 30.1046 8 29 8H20" stroke="#CCD7F6" stroke-opacity="0.12" stroke-linecap="round" stroke-linejoin="round"/>
<path d="M31 30V30C31 31.1046 30.1046 32 29 32L20 32M9 30V30C9 31.1046 9.89543 32 11 32L17 32" stroke="#CCD7F6" stroke-opacity="0.12" stroke-linecap="round" stroke-linejoin="round"/>
<path d="M34 15V12C34 10.8954 33.1046 10 32 10H20M34 24V28C34 29.1046 33.1046 30 32 30H20M6 15V12C6 10.8954 6.89543 10 8 10H17M6 24V28C6 29.1046 6.89543 30 8 30H17M20 6V10M20 34V30M20 10V30" stroke="#C0C7D8" stroke-linecap="round" stroke-linejoin="round"/>
<path d="M6 18L6 21" stroke="#C0C7D8" stroke-linecap="round" stroke-linejoin="round"/>
<path d="M34 18L34 21" stroke="#C0C7D8" stroke-linecap="round" stroke-linejoin="round"/>
<path d="M12 17L14.6464 19.6464C14.8417 19.8417 14.8417 20.1583 14.6464 20.3536L12 23" stroke="#C0C7D8" stroke-linecap="round" stroke-linejoin="round"/>
<defs>
<linearGradient id="paint0_linear_407_7973" x1="20" y1="10" x2="20" y2="30" gradientUnits="userSpaceOnUse">
<stop stop-color="#CCD7F6" stop-opacity="0"/>
<stop offset="1" stop-color="#CCD7F6"/>
</linearGradient>
</defs>
</svg>
